# xmcd
#
# Track frame offsets:
#       183
#       52113
#       86448
#       104263
#       134285
#       183918
#
# Disc length: 4199 seconds
#
# Revision: 1
# Processed by: cddbd v1.5.2PL0 Copyright (c) Steve Scherf et al.
# Submitted via: FreeDbEdit v0.1
#
DISCID=49106506
DTITLE=Grateful Dead - Live at Shrine Auditorium
DYEAR=1967
DGENRE=Blues
TTITLE0=Turn on Your Lovelight
TTITLE1=Death Don't Have No Merci
TTITLE2=It Hurts Me Too
TTITLE3=Morning Dew
TTITLE4=Caution
TTITLE5=Alligator Drums Jam
EXTD=Group - The Grateful Dead\ntitle - Live at Shrine auditorium\nCompagny - ROINE\n
EXTT0=
EXTT1=
EXTT2=
EXTT3=
EXTT4=
EXTT5=
PLAYORDER=
